<svg width="17" height="16" viewBox="0 0 17 16" fill="none" xmlns="http://www.w3.org/2000/svg">
<path d="M3.78341 2.16668C3.78319 2.6087 3.60738 3.03254 3.29466 3.34494C2.98195 3.65735 2.55793 3.83273 2.11591 3.83251C1.67388 3.83229 1.25004 3.65648 0.93764 3.34377C0.625235 3.03105 0.449852 2.60704 0.450073 2.16501C0.450294 1.72298 0.626101 1.29915 0.938818 0.986742C1.25154 0.674338 1.67555 0.498955 2.11757 0.499176C2.5596 0.499397 2.98344 0.675204 3.29584 0.987921C3.60825 1.30064 3.78363 1.72465 3.78341 2.16668V2.16668ZM3.83341 5.06668H0.500073V15.5H3.83341V5.06668ZM9.10007 5.06668H5.78341V15.5H9.06674V10.025C9.06674 6.97501 13.0417 6.69168 13.0417 10.025V15.5H16.3334V8.89168C16.3334 3.75001 10.4501 3.94168 9.06674 6.46668L9.10007 5.06668V5.06668Z" fill="#747887"/>
</svg>
